<svg width="335" height="372" xmlns="http://www.w3.org/2000/svg" xmlns:xlink="http://www.w3.org/1999/xlink" version="1.1" baseProfile="full" viewBox="0 0 335 372">
<rect width="335" height="372" x="0" y="0" id="0" fill="#11131f"></rect>
<path d="M45 332.5L290 332.5" fill="none" stroke="#ffffff66" stroke-opacity="0.25" stroke-dasharray="1"></path>
<path d="M45 273.5L290 273.5" fill="none" stroke="#ffffff66" stroke-opacity="0.25" stroke-dasharray="1"></path>
<path d="M45 215.5L290 215.5" fill="none" stroke="#ffffff66" stroke-opacity="0.25" stroke-dasharray="1"></path>
<path d="M45 157.5L290 157.5" fill="none" stroke="#ffffff66" stroke-opacity="0.25" stroke-dasharray="1"></path>
<path d="M45 98.5L290 98.5" fill="none" stroke="#ffffff66" stroke-opacity="0.25" stroke-dasharray="1"></path>
<path d="M45 40.5L290 40.5" fill="none" stroke="#ffffff66" stroke-opacity="0.25" stroke-dasharray="1"></path>
<path d="M45 332.5L290 332.5" fill="none" stroke="#6E7079" stroke-linecap="round"></path>
<path d="M79.5 332L79.5 337" fill="none" stroke="#6E7079"></path>
<path d="M124.5 332L124.5 337" fill="none" stroke="#6E7079"></path>
<path d="M168.5 332L168.5 337" fill="none" stroke="#6E7079"></path>
<path d="M212.5 332L212.5 337" fill="none" stroke="#6E7079"></path>
<path d="M256.5 332L256.5 337" fill="none" stroke="#6E7079"></path>
<text dominant-baseline="central" text-anchor="end" style="font-size:12px;font-family:sans-serif;" transform="translate(37 332)" fill="rgb(110, 112, 121)">0</text>
<text dominant-baseline="central" text-anchor="end" style="font-size:12px;font-family:sans-serif;" transform="translate(37 273.6)" fill="rgb(110, 112, 121)">20,000</text>
<text dominant-baseline="central" text-anchor="end" style="font-size:12px;font-family:sans-serif;" transform="translate(37 215.2)" fill="rgb(110, 112, 121)">40,000</text>
<text dominant-baseline="central" text-anchor="end" style="font-size:12px;font-family:sans-serif;" transform="translate(37 156.8)" fill="rgb(110, 112, 121)">60,000</text>
<text dominant-baseline="central" text-anchor="end" style="font-size:12px;font-family:sans-serif;" transform="translate(37 98.4)" fill="rgb(110, 112, 121)">80,000</text>
<text dominant-baseline="central" text-anchor="end" style="font-size:12px;font-family:sans-serif;" transform="translate(37 40)" fill="rgb(110, 112, 121)">100,000</text>
<text dominant-baseline="central" text-anchor="start" style="font-size:12px;font-family:sans-serif;" transform="translate(298 332)" fill="rgb(110, 112, 121)">0</text>
<text dominant-baseline="central" text-anchor="start" style="font-size:12px;font-family:sans-serif;" transform="translate(298 283.3333)" fill="rgb(110, 112, 121)">1,000</text>
<text dominant-baseline="central" text-anchor="start" style="font-size:12px;font-family:sans-serif;" transform="translate(298 234.6667)" fill="rgb(110, 112, 121)">2,000</text>
<text dominant-baseline="central" text-anchor="start" style="font-size:12px;font-family:sans-serif;" transform="translate(298 186)" fill="rgb(110, 112, 121)">3,000</text>
<text dominant-baseline="central" text-anchor="start" style="font-size:12px;font-family:sans-serif;" transform="translate(298 137.3333)" fill="rgb(110, 112, 121)">4,000</text>
<text dominant-baseline="central" text-anchor="start" style="font-size:12px;font-family:sans-serif;" transform="translate(298 88.6667)" fill="rgb(110, 112, 121)">5,000</text>
<text dominant-baseline="central" text-anchor="start" style="font-size:12px;font-family:sans-serif;" transform="translate(298 40)" fill="rgb(110, 112, 121)">6,000</text>
<text dominant-baseline="central" text-anchor="middle" style="font: normal normal 12px sans-serif" y="6" transform="translate(79.6841 340)" fill="#6E7079">2019</text>
<text dominant-baseline="central" text-anchor="middle" style="font: normal normal 12px sans-serif" y="6" transform="translate(123.9101 340)" fill="#6E7079">2020</text>
<text dominant-baseline="central" text-anchor="middle" style="font: normal normal 12px sans-serif" y="6" transform="translate(168.2573 340)" fill="#6E7079">2021</text>
<text dominant-baseline="central" text-anchor="middle" style="font: normal normal 12px sans-serif" y="6" transform="translate(212.4833 340)" fill="#6E7079">2022</text>
<text dominant-baseline="central" text-anchor="middle" style="font: normal normal 12px sans-serif" y="6" transform="translate(256.7093 340)" fill="#6E7079">2023</text>
<g clip-path="url(#zr8-c0)">
<path d="M290 99.6783L289.8788 100.4874L289.7577 112.7871L289.5153 113.6453L289.273 115.3082L289.1518 113.9349L289.0307 102.5588L288.9095 100.8716L288.7883 95.0547L288.546 94.0145L287.9402 95.1678L287.5767 96.8756L287.4555 97.7025L287.092 98.8689L286.9708 96.9839L286.6073 98.2074L286.4861 99.5439L286.365 100.845L286.0015 102.1927L285.8803 102.8913L285.7592 103.9986L285.638 104.8764L285.5168 98.1772L285.3957 99.1905L285.2745 101.2138L285.1533 101.9883L284.7898 102.9116L284.6686 104.3097L284.5475 103.1903L284.3051 102.0394L284.0628 99.2149L283.9417 100.0127L283.3358 99.3619L283.2146 100.6509L282.8511 99.3921L282.6088 100.69L282.3665 98.696L282.1241 99.7643L281.7606 100.6085L281.6395 101.4518L281.3971 88.1269L281.0336 332L280.4278 92.4985L279.822 91.8934L279.7008 93.1866L279.5796 64.0777L279.3373 64.9074L279.095 65.6944L278.8526 66.3705L278.7314 65.0001L278.2468 64.4587L278.1256 65.1665L278.0045 66.7367L277.8833 64.9208L277.3986 65.542L277.1563 68.1924L277.0351 66.7295L276.9139 67.5329L276.4293 68.2472L276.3081 69.3703L276.187 67.5787L275.5811 68.4304L275.4599 71.2734L275.3388 69.0956L274.9753 70.1311L274.8541 68.0733L274.6118 71.5394L274.4906 68.4005L273.8848 68.9148L273.7636 73.1314L273.6424 70.7562L273.1578 70.1122L272.7943 69.3479L272.6731 67.249L272.4308 68.5923L272.1884 66.9644L272.0673 67.823L271.9461 66.7749L271.4614 66.1993L271.2191 67.1332L271.0979 66.4033L270.8556 67.2596L270.6133 68.036L270.3709 71.1919L270.2498 67.1476L269.7651 65.4875L269.6439 64.2455L269.5227 66.7703L269.4016 65.4359L268.9169 66.4162L268.6746 69.9893L268.5534 65.5987L268.3111 66.3808L267.8264 72.1032L267.7052 67.1874L267.2206 66.5198L267.0994 67.3911L266.9782 71.0678L266.8571 64.7168L266.7359 65.6566L266.4936 64.9667L266.2513 66.1806L266.1301 68.4176L266.0089 66.5084L265.6454 67.3785L265.2819 68.4558L265.0396 69.3051L264.9184 67.4335L264.7972 66.3856L264.3126 67.3223L263.9491 65.542L263.7067 66.3799L263.5856 65.4998L263.4644 64.5563L263.3432 66.0624L263.1009 67.6185L262.8586 68.5331L262.6162 69.6618L262.4951 70.5128L262.3739 69.4518L262.1316 67.6583L261.7681 69.4349L261.5257 68.5795L261.1622 69.2843L260.7987 70.4406L260.5564 71.1693L260.3141 72.7336L259.587 74.1473L259.4659 75.0594L259.1024 76.1644L258.6177 77.0025L258.4966 78.2952L258.2542 78.961L258.0119 77.1234L257.7695 77.8726L257.2849 78.5029L257.0425 79.3614L256.679 80.0873L256.5579 81.059L256.4367 80.227L256.1944 81.7953L256.0732 83.3167L255.952 81.9758L255.7097 80.9284L255.3462 79.97L254.9827 79.2299L254.7404 80.0497L254.498 81.6239L254.2557 82.6535L254.0134 83.7779L253.771 84.5599L253.6499 83.5158L253.2863 84.586L253.044 83.6692L252.8017 82.4981L252.5593 80.7155L252.4382 81.5655L252.317 82.6624L252.0747 84.2166L251.7112 85.369L251.59 81.8212L251.3477 79.6513L251.2265 82.5261L250.863 80.8031L250.6207 81.7262L250.136 80.6408L250.0148 78.4806L249.8937 79.926L249.7725 81.211L249.6513 82.0589L249.1667 81.5369L249.0455 82.3986L248.9243 83.9163L248.8032 79.1261L248.682 81.6406L248.5608 80.8659L248.4397 82.9301L248.1973 83.959L248.0762 84.9154L247.955 86.3714L247.7127 88.9803L247.4703 87.9119L247.228 88.9181L246.8645 88.1577L246.6222 89.7222L246.2587 90.4984L246.1375 88.5524L246.0163 89.3285L245.774 90.6217L245.5316 91.9095L245.2893 93.5546L245.1682 94.8597L244.8046 96.3812L244.5623 97.6496L244.1988 98.9178L243.4718 99.74L243.3506 100.859L242.9871 101.7721L242.866 103.6393L242.7448 102.7423L242.5025 104.0135L242.139 105.7632L241.8966 107.1349L232.2033 175.9824L232.0821 173.8909L231.9609 172.9447L231.8398 171.802L231.5974 170.4521L231.3551 169.6015L231.2339 168.8271L230.8704 168.1636L230.6281 167.1443L230.5069 166.3951L230.0223 167.2187L229.9011 168.0316L229.6588 169.1231L229.4164 170.3192L229.2953 171.6994L229.0529 171.0249L228.3259 170.9811L227.7201 172.347L227.3566 171.2431L227.2354 168.9311L226.8719 169.9334L226.5084 171.1974L226.2661 172.1214L226.0237 173.4232L225.7814 174.2267L225.4179 174.966L224.6909 175.7139L224.3274 176.5153L224.0851 175.7407L223.4792 177.1217L223.1157 177.8504L222.6311 178.6938L222.5099 179.4199L221.9041 179.9884L221.6617 180.8039L221.4194 181.8213L220.6924 181.9947L220.5712 180.7138L220.3289 181.8996L219.9654 182.7203L219.2384 183.6417L218.996 184.5387L218.8749 185.3701L218.7537 194.953L218.6325 212.692L202.8808 206.7468L202.275 206.2148L202.0326 215.907L201.0633 227.4654L200.9421 222.6028L200.821 219.8948L200.5786 218.8836L200.3363 217.802L200.094 216.7383L199.9728 215.9473L199.6093 217.2118L199.4881 225.0347L199.2458 226.285L198.8823 228.2234L198.64 229.4729L198.5188 232.3451L197.913 232.8212L197.4283 233.349L196.9436 234.3879L196.7013 235.1916L196.2166 235.8438L195.9743 236.5167L195.7319 237.5526L195.4896 238.4351L195.1261 239.2013L194.8838 240.1678L194.6414 241.1705L194.3991 241.9529L194.1568 243.1485L194.0356 244.0997L193.9144 245.025L193.7933 246.0869L193.5509 247.9289L193.4298 249.0611L193.1874 249.9672L192.9451 250.9675L192.8239 252.4599L192.7028 254.1754L192.4604 255.3386L192.0969 256.3303L191.8546 257.3623L191.7334 258.1967L191.4911 259.1065L191.3699 260.275L191.2488 261.0922L191.0064 263.2433L190.8853 264.0877L190.7641 265.0648L190.6429 266.6517L190.4006 267.6229L189.6736 267.9727L189.4313 268.7206L188.9466 269.2568L188.7043 270.3354L188.4619 271.5612L188.2196 272.446L187.9772 274.1131L187.3714 275.2075L187.0079 276.2847L186.7656 276.9651L186.5232 277.7085L186.2809 278.6217L186.0386 279.447L185.6751 280.2374L184.9481 280.3344L184.3422 280.8092L184.0999 281.5833L183.8576 282.6054L183.4941 283.4699L183.2517 284.3007L182.8882 285.5527L182.5247 286.2398L181.9189 286.8651L181.1919 286.5556L180.4649 286.4568L179.8591 287.0233L179.3744 287.554L178.7685 287.923L178.405 288.5758L177.7992 289.4715L177.0722 289.7115L176.4664 290.2844L176.224 291.0883L175.9817 291.7631L175.497 292.4398L175.0124 292.968L174.4065 292.4145L173.6795 292.8738L172.9525 293.1471L172.3467 293.5482L171.7408 292.99L171.135 292.3929L170.408 292.5346L169.681 292.2916L169.0752 292.6685L168.3482 292.947L167.8635 292.3559L167.1365 292.0949L166.4095 291.8968L165.8037 292.2842L165.0767 292.6704L164.3497 292.8569L163.7438 292.4329L163.0168 292.2007L162.411 292.7865L161.9263 293.4255L161.5628 294.1138L161.0781 293.5037L160.7146 292.4477L160.23 291.8159L159.8665 290.9982L159.3818 290.3534L158.6548 290.3356L158.2913 290.9645L157.5643 290.6761L156.9585 291.0592L156.2315 291.448L155.7468 292.3159L155.0198 292.3124L154.2928 292.8364L153.687 293.2307L153.2023 293.8526L152.7176 294.4574L151.9906 294.7567L151.2636 294.5931L150.5366 295.0195L149.8096 295.1362L149.0826 295.0949L148.3556 295.084L147.6286 294.9192L146.9016 295.1841L146.1746 295.6115L145.8111 296.2251L145.0841 296.2383L144.4782 296.6586L143.8724 297.3246L142.5396 298.4776L141.9337 298.0285L141.3279 297.4649L140.9644 296.8098L140.2374 296.7943L139.6315 296.392L139.1469 296.9634L138.4199 296.5197L137.6929 296.6865L136.9659 296.8582L136.2389 296.5893L135.7542 297.7541L135.3907 298.4182L135.0272 297.6788L134.4214 298.0717L134.0579 300.732L133.452 302.1311L133.3309 298.2395L132.6039 298.3682L131.998 297.9341L131.271 298.0727L130.544 297.9036L129.9382 297.4968L129.4535 298.1087L129.09 298.7736L128.363 298.6732L127.7572 298.2497L127.636 300.0203L118.3061 301.9157L118.0638 300.9977L117.5791 300.4724L116.8521 300.0473L116.1251 300.0674L115.3981 300.4733L114.9135 301.1042L114.1864 301.2517L113.5806 300.76L112.9748 300.2098L112.2478 300.161L111.7631 299.5876L111.0361 299.3465L110.4303 299.7151L110.3091 298.9957L109.7033 299.5455L108.9763 299.1119L108.2493 299.2103L107.5223 299.1469L106.9164 295.3108L106.3106 294.945L105.8259 294.2441L105.5836 293.4378L104.9777 291.751L104.3719 292.1559L103.8872 293.2156L103.4026 294.1639L101.2216 298.1135L101.1004 294.0836L100.8581 293.3252L100.1311 293.4998L99.4041 299.3486L95.2844 287.8999L94.5574 287.6216L93.8304 287.693L93.7092 289.5121L88.8625 304.1159L88.2567 303.4797L87.772 302.8188L87.4085 302.0785L87.1662 303.0938L86.8027 303.9864L86.4392 304.8079L86.0757 305.5217L85.8333 306.2752L85.7122 309.1131L83.5312 307.2174L82.8042 307.1017L82.0771 307.07L81.956 312.2428L81.8348 326.7737L81.5925 328.1246L81.4713 329.1732L81.3502 329.9274L81.229 330.8487L80.502 331.2361L79.775 331.5979L79.048 331.8308L78.321 331.9132L77.594 331.9276L76.867 331.89L76.14 331.9275L75.413 331.946L74.686 331.9669L73.959 331.9661L73.2319 331.9729L72.5049 331.9843L71.7779 331.995L71.0509 331.9839L70.3239 331.9621L69.5969 331.9659L68.8699 331.9564L68.1429 331.962L67.4159 331.9531L66.6889 331.9555L65.9619 331.9774L65.2349 331.9954L64.5079 331.996L63.7809 331.9962L63.0539 331.9972L62.3269 331.9927L61.5999 331.9522L60.8729 331.9569L60.1459 331.9575L59.4189 331.9986L58.6919 331.9995L57.9649 331.9997L57.2379 331.9993L56.5109 331.9991L55.7839 331.9989L55.0569 331.9984L54.3299 331.9982L53.6029 331.9988L52.8759 331.9984L52.1489 331.9972L51.4219 331.9887L50.6949 331.9894L49.9679 331.9995L49.2409 331.9995L48.5138 331.9994L47.7868 331.9994L47.0598 331.9916L46.3328 331.9914L45.6058 331.9914L45 332L45.727 332L46.454 332L47.181 332L47.908 332L48.635 332L49.362 332L50.089 332L50.816 332L51.543 332L52.27 332L52.997 332L53.724 332L54.451 332L55.178 332L55.905 332L56.632 332L57.3591 332L58.0861 332L58.8131 332L59.5401 332L60.2671 332L60.9941 332L61.7211 332L62.4481 332L63.1751 332L63.9021 332L64.6291 332L65.3561 332L66.0831 332L66.8101 332L67.5371 332L68.2641 332L68.9911 332L69.7181 332L70.4451 332L71.1721 332L71.8991 332L72.6261 332L73.3531 332L74.0801 332L74.8071 332L75.5341 332L76.2611 332L76.9881 332L77.7151 332L78.4421 332L79.1691 332L79.8961 332L80.6231 332L81.3502 332L82.0771 332L82.8042 332L83.5312 332L85.7122 332L86.4392 332L87.1662 332L87.8932 332L88.6202 332L93.7092 332L94.4362 332L95.1632 332L99.4041 332L100.1311 332L100.8581 332L103.2814 332L104.0084 332L104.7354 332L105.4624 332L106.1894 332L106.9164 332L107.6434 332L108.3704 332L109.0974 332L109.8244 332L110.5514 332L111.2784 332L112.0054 332L112.7324 332L113.4594 332L114.1864 332L114.9135 332L115.6405 332L116.3675 332L117.0945 332L117.8215 332L127.636 332L128.363 332L129.09 332L129.817 332L130.544 332L131.271 332L131.998 332L132.725 332L133.452 332L134.179 332L134.906 332L135.633 332L136.36 332L137.087 332L137.814 332L138.541 332L139.2681 332L139.9951 332L140.7221 332L141.4491 332L142.1761 332L143.7512 332L144.4782 332L145.2052 332L145.9323 332L146.6592 332L147.3862 332L148.1133 332L148.8403 332L149.5673 332L150.2943 332L151.0213 332L151.7483 332L152.4753 332L153.2023 332L153.9293 332L154.6563 332L155.3833 332L156.1103 332L156.8373 332L157.5643 332L158.2913 332L159.0183 332L159.7453 332L160.4723 332L161.1993 332L161.9263 332L162.6533 332L163.3803 332L164.1073 332L164.8343 332L165.5613 332L166.2883 332L167.0153 332L167.7423 332L168.4693 332L169.1963 332L169.9233 332L170.6503 332L171.3773 332L172.1044 332L172.8314 332L173.5584 332L174.2854 332L175.0124 332L175.7394 332L176.4664 332L177.1934 332L177.9204 332L178.6474 332L179.3744 332L180.1014 332L180.8284 332L181.5554 332L182.2824 332L183.0094 332L183.7364 332L184.4634 332L185.1904 332L185.9174 332L186.6444 332L187.3714 332L188.0984 332L188.8254 332L189.5524 332L190.2794 332L191.0064 332L191.7334 332L192.4604 332L193.1874 332L193.9144 332L194.6414 332L195.3685 332L196.0954 332L196.8224 332L197.5495 332L198.2765 332L199.0035 332L199.7305 332L200.4575 332L202.0326 332L202.7596 332L218.6325 332L219.3595 332L220.0865 332L220.8136 332L221.5406 332L222.2676 332L222.9946 332L223.7216 332L224.4486 332L225.1756 332L225.9026 332L226.6296 332L227.3566 332L228.0836 332L228.8106 332L229.5376 332L230.2646 332L230.9916 332L231.7186 332L241.6543 332L242.3813 332L243.1083 332L243.8353 332L244.5623 332L245.2893 332L246.0163 332L246.7433 332L247.4703 332L248.1973 332L248.9243 332L249.6513 332L250.3783 332L251.1053 332L251.8324 332L252.5593 332L253.2863 332L254.0134 332L254.7404 332L255.4674 332L256.1944 332L256.9214 332L257.6484 332L258.3754 332L259.1024 332L259.8294 332L260.5564 332L261.2834 332L262.0104 332L262.7374 332L263.4644 332L264.1914 332L264.9184 332L265.6454 332L266.3724 332L267.0994 332L267.8264 332L268.5534 332L269.2804 332L270.0074 332L270.7344 332L271.4614 332L272.1884 332L272.9154 332L273.6424 332L274.3694 332L275.0964 332L275.8235 332L276.5504 332L277.2774 332L278.0045 332L278.7314 332L279.4585 332L280.1855 332L281.0336 332L281.7606 332L282.4876 332L283.2146 332L283.9417 332L284.6686 332L285.3957 332L286.1227 332L286.8496 332L287.5767 332L288.3036 332L289.0307 332L289.7577 332Z" fill="url(#zr8-g0)" fill-opacity="0.5"></path>
<path d="M290 99.6783L289.8788 100.4874L289.7577 112.7871L289.5153 113.6453L289.273 115.3082L289.1518 113.9349L289.0307 102.5588L288.9095 100.8716L288.7883 95.0547L288.546 94.0145L287.9402 95.1678L287.5767 96.8756L287.4555 97.7025L287.092 98.8689L286.9708 96.9839L286.6073 98.2074L286.4861 99.5439L286.365 100.845L286.0015 102.1927L285.8803 102.8913L285.7592 103.9986L285.638 104.8764L285.5168 98.1772L285.3957 99.1905L285.2745 101.2138L285.1533 101.9883L284.7898 102.9116L284.6686 104.3097L284.5475 103.1903L284.3051 102.0394L284.0628 99.2149L283.9417 100.0127L283.3358 99.3619L283.2146 100.6509L282.8511 99.3921L282.6088 100.69L282.3665 98.696L282.1241 99.7643L281.7606 100.6085L281.6395 101.4518L281.3971 88.1269L281.0336 332L280.4278 92.4985L279.822 91.8934L279.7008 93.1866L279.5796 64.0777L279.3373 64.9074L279.095 65.6944L278.8526 66.3705L278.7314 65.0001L278.2468 64.4587L278.1256 65.1665L278.0045 66.7367L277.8833 64.9208L277.3986 65.542L277.1563 68.1924L277.0351 66.7295L276.9139 67.5329L276.4293 68.2472L276.3081 69.3703L276.187 67.5787L275.5811 68.4304L275.4599 71.2734L275.3388 69.0956L274.9753 70.1311L274.8541 68.0733L274.6118 71.5394L274.4906 68.4005L273.8848 68.9148L273.7636 73.1314L273.6424 70.7562L273.1578 70.1122L272.7943 69.3479L272.6731 67.249L272.4308 68.5923L272.1884 66.9644L272.0673 67.823L271.9461 66.7749L271.4614 66.1993L271.2191 67.1332L271.0979 66.4033L270.8556 67.2596L270.6133 68.036L270.3709 71.1919L270.2498 67.1476L269.7651 65.4875L269.6439 64.2455L269.5227 66.7703L269.4016 65.4359L268.9169 66.4162L268.6746 69.9893L268.5534 65.5987L268.3111 66.3808L267.8264 72.1032L267.7052 67.1874L267.2206 66.5198L267.0994 67.3911L266.9782 71.0678L266.8571 64.7168L266.7359 65.6566L266.4936 64.9667L266.2513 66.1806L266.1301 68.4176L266.0089 66.5084L265.6454 67.3785L265.2819 68.4558L265.0396 69.3051L264.9184 67.4335L264.7972 66.3856L264.3126 67.3223L263.9491 65.542L263.7067 66.3799L263.5856 65.4998L263.4644 64.5563L263.3432 66.0624L263.1009 67.6185L262.8586 68.5331L262.6162 69.6618L262.4951 70.5128L262.3739 69.4518L262.1316 67.6583L261.7681 69.4349L261.5257 68.5795L261.1622 69.2843L260.7987 70.4406L260.5564 71.1693L260.3141 72.7336L259.587 74.1473L259.4659 75.0594L259.1024 76.1644L258.6177 77.0025L258.4966 78.2952L258.2542 78.961L258.0119 77.1234L257.7695 77.8726L257.2849 78.5029L257.0425 79.3614L256.679 80.0873L256.5579 81.059L256.4367 80.227L256.1944 81.7953L256.0732 83.3167L255.952 81.9758L255.7097 80.9284L255.3462 79.97L254.9827 79.2299L254.7404 80.0497L254.498 81.6239L254.2557 82.6535L254.0134 83.7779L253.771 84.5599L253.6499 83.5158L253.2863 84.586L253.044 83.6692L252.8017 82.4981L252.5593 80.7155L252.4382 81.5655L252.317 82.6624L252.0747 84.2166L251.7112 85.369L251.59 81.8212L251.3477 79.6513L251.2265 82.5261L250.863 80.8031L250.6207 81.7262L250.136 80.6408L250.0148 78.4806L249.8937 79.926L249.7725 81.211L249.6513 82.0589L249.1667 81.5369L249.0455 82.3986L248.9243 83.9163L248.8032 79.1261L248.682 81.6406L248.5608 80.8659L248.4397 82.9301L248.1973 83.959L248.0762 84.9154L247.955 86.3714L247.7127 88.9803L247.4703 87.9119L247.228 88.9181L246.8645 88.1577L246.6222 89.7222L246.2587 90.4984L246.1375 88.5524L246.0163 89.3285L245.774 90.6217L245.5316 91.9095L245.2893 93.5546L245.1682 94.8597L244.8046 96.3812L244.5623 97.6496L244.1988 98.9178L243.4718 99.74L243.3506 100.859L242.9871 101.7721L242.866 103.6393L242.7448 102.7423L242.5025 104.0135L242.139 105.7632L241.8966 107.1349L232.2033 175.9824L232.0821 173.8909L231.9609 172.9447L231.8398 171.802L231.5974 170.4521L231.3551 169.6015L231.2339 168.8271L230.8704 168.1636L230.6281 167.1443L230.5069 166.3951L230.0223 167.2187L229.9011 168.0316L229.6588 169.1231L229.4164 170.3192L229.2953 171.6994L229.0529 171.0249L228.3259 170.9811L227.7201 172.347L227.3566 171.2431L227.2354 168.9311L226.8719 169.9334L226.5084 171.1974L226.2661 172.1214L226.0237 173.4232L225.7814 174.2267L225.4179 174.966L224.6909 175.7139L224.3274 176.5153L224.0851 175.7407L223.4792 177.1217L223.1157 177.8504L222.6311 178.6938L222.5099 179.4199L221.9041 179.9884L221.6617 180.8039L221.4194 181.8213L220.6924 181.9947L220.5712 180.7138L220.3289 181.8996L219.9654 182.7203L219.2384 183.6417L218.996 184.5387L218.8749 185.3701L218.7537 194.953L218.6325 212.692L202.8808 206.7468L202.275 206.2148L202.0326 215.907L201.0633 227.4654L200.9421 222.6028L200.821 219.8948L200.5786 218.8836L200.3363 217.802L200.094 216.7383L199.9728 215.9473L199.6093 217.2118L199.4881 225.0347L199.2458 226.285L198.8823 228.2234L198.64 229.4729L198.5188 232.3451L197.913 232.8212L197.4283 233.349L196.9436 234.3879L196.7013 235.1916L196.2166 235.8438L195.9743 236.5167L195.7319 237.5526L195.4896 238.4351L195.1261 239.2013L194.8838 240.1678L194.6414 241.1705L194.3991 241.9529L194.1568 243.1485L194.0356 244.0997L193.9144 245.025L193.7933 246.0869L193.5509 247.9289L193.4298 249.0611L193.1874 249.9672L192.9451 250.9675L192.8239 252.4599L192.7028 254.1754L192.4604 255.3386L192.0969 256.3303L191.8546 257.3623L191.7334 258.1967L191.4911 259.1065L191.3699 260.275L191.2488 261.0922L191.0064 263.2433L190.8853 264.0877L190.7641 265.0648L190.6429 266.6517L190.4006 267.6229L189.6736 267.9727L189.4313 268.7206L188.9466 269.2568L188.7043 270.3354L188.4619 271.5612L188.2196 272.446L187.9772 274.1131L187.3714 275.2075L187.0079 276.2847L186.7656 276.9651L186.5232 277.7085L186.2809 278.6217L186.0386 279.447L185.6751 280.2374L184.9481 280.3344L184.3422 280.8092L184.0999 281.5833L183.8576 282.6054L183.4941 283.4699L183.2517 284.3007L182.8882 285.5527L182.5247 286.2398L181.9189 286.8651L181.1919 286.5556L180.4649 286.4568L179.8591 287.0233L179.3744 287.554L178.7685 287.923L178.405 288.5758L177.7992 289.4715L177.0722 289.7115L176.4664 290.2844L176.224 291.0883L175.9817 291.7631L175.497 292.4398L175.0124 292.968L174.4065 292.4145L173.6795 292.8738L172.9525 293.1471L172.3467 293.5482L171.7408 292.99L171.135 292.3929L170.408 292.5346L169.681 292.2916L169.0752 292.6685L168.3482 292.947L167.8635 292.3559L167.1365 292.0949L166.4095 291.8968L165.8037 292.2842L165.0767 292.6704L164.3497 292.8569L163.7438 292.4329L163.0168 292.2007L162.411 292.7865L161.9263 293.4255L161.5628 294.1138L161.0781 293.5037L160.7146 292.4477L160.23 291.8159L159.8665 290.9982L159.3818 290.3534L158.6548 290.3356L158.2913 290.9645L157.5643 290.6761L156.9585 291.0592L156.2315 291.448L155.7468 292.3159L155.0198 292.3124L154.2928 292.8364L153.687 293.2307L153.2023 293.8526L152.7176 294.4574L151.9906 294.7567L151.2636 294.5931L150.5366 295.0195L149.8096 295.1362L149.0826 295.0949L148.3556 295.084L147.6286 294.9192L146.9016 295.1841L146.1746 295.6115L145.8111 296.2251L145.0841 296.2383L144.4782 296.6586L143.8724 297.3246L142.5396 298.4776L141.9337 298.0285L141.3279 297.4649L140.9644 296.8098L140.2374 296.7943L139.6315 296.392L139.1469 296.9634L138.4199 296.5197L137.6929 296.6865L136.9659 296.8582L136.2389 296.5893L135.7542 297.7541L135.3907 298.4182L135.0272 297.6788L134.4214 298.0717L134.0579 300.732L133.452 302.1311L133.3309 298.2395L132.6039 298.3682L131.998 297.9341L131.271 298.0727L130.544 297.9036L129.9382 297.4968L129.4535 298.1087L129.09 298.7736L128.363 298.6732L127.7572 298.2497L127.636 300.0203L118.3061 301.9157L118.0638 300.9977L117.5791 300.4724L116.8521 300.0473L116.1251 300.0674L115.3981 300.4733L114.9135 301.1042L114.1864 301.2517L113.5806 300.76L112.9748 300.2098L112.2478 300.161L111.7631 299.5876L111.0361 299.3465L110.4303 299.7151L110.3091 298.9957L109.7033 299.5455L108.9763 299.1119L108.2493 299.2103L107.5223 299.1469L106.9164 295.3108L106.3106 294.945L105.8259 294.2441L105.5836 293.4378L104.9777 291.751L104.3719 292.1559L103.8872 293.2156L103.4026 294.1639L101.2216 298.1135L101.1004 294.0836L100.8581 293.3252L100.1311 293.4998L99.4041 299.3486L95.2844 287.8999L94.5574 287.6216L93.8304 287.693L93.7092 289.5121L88.8625 304.1159L88.2567 303.4797L87.772 302.8188L87.4085 302.0785L87.1662 303.0938L86.8027 303.9864L86.4392 304.8079L86.0757 305.5217L85.8333 306.2752L85.7122 309.1131L83.5312 307.2174L82.8042 307.1017L82.0771 307.07L81.956 312.2428L81.8348 326.7737L81.5925 328.1246L81.4713 329.1732L81.3502 329.9274L81.229 330.8487L80.502 331.2361L79.775 331.5979L79.048 331.8308L78.321 331.9132L77.594 331.9276L76.867 331.89L76.14 331.9275L75.413 331.946L74.686 331.9669L73.959 331.9661L73.2319 331.9729L72.5049 331.9843L71.7779 331.995L71.0509 331.9839L70.3239 331.9621L69.5969 331.9659L68.8699 331.9564L68.1429 331.962L67.4159 331.9531L66.6889 331.9555L65.9619 331.9774L65.2349 331.9954L64.5079 331.996L63.7809 331.9962L63.0539 331.9972L62.3269 331.9927L61.5999 331.9522L60.8729 331.9569L60.1459 331.9575L59.4189 331.9986L58.6919 331.9995L57.9649 331.9997L57.2379 331.9993L56.5109 331.9991L55.7839 331.9989L55.0569 331.9984L54.3299 331.9982L53.6029 331.9988L52.8759 331.9984L52.1489 331.9972L51.4219 331.9887L50.6949 331.9894L49.9679 331.9995L49.2409 331.9995L48.5138 331.9994L47.7868 331.9994L47.0598 331.9916L46.3328 331.9914L45.6058 331.9914" fill="none" stroke="url(#zr8-g0)" stroke-width="2" stroke-linejoin="bevel"></path>
</g>
<path d="M0 0l300 0l0 30l-300 0Z" transform="matrix(1,0,0,-1,22.5,365)" fill="rgb(47,69,84)" fill-opacity="0"></path>
<g clip-path="url(#zr8-c1)">
<polygon points="300 0 0 0 0 19.9 0.9 20.1 1.9 21.1 2.8 21 3.7 21 4.6 20.9 5.6 20.8 6.5 20.8 7.4 20.8 8.4 21 9.3 21.1 10.2 21.1 11.2 21 12.1 20.9 13 21 13.9 21.1 14.9 20.4 15.8 21.2 16.7 21.3 17.7 21.3 18.6 21.3 19.5 21.3 20.4 21.5 21.4 21.1 22.3 21.7 23.2 21.7 24.2 21.7 25.1 21.8 26 22.1 27 22 27.9 21.8 28.8 22.1 29.7 22.1 30.7 22.1 31.6 22.1 32.5 22.2 33.5 22.2 34.4 21.4 35.3 22.3 36.2 22.3 37.2 22.3 38.1 22.5 39 22.5 40 22.5 40.9 22.5 41.8 22.5 42.8 22.7 43.7 22.6 44.6 22.6 45.5 22.5 46.5 22.3 47.4 22.4 48.3 22.3 49.3 22.4 50.2 22.3 51.1 22.3 52 22.3 53 22.2 53.9 22.2 54.8 22.4 55.8 22.5 56.7 22.5 57.6 22.4 58.6 22.7 59.5 22.7 60.4 22.8 61.3 22.8 62.3 23.4 63.2 23.6 64.1 23.6 65.1 23.9 66 24.1 66.9 24.1 67.8 24.1 68.8 24.1 69.7 24.1 70.6 24.1 71.6 24.2 72.5 24.1 73.4 22.5 74.3 23.2 75.3 23.5 76.2 23.7 77.1 23.6 78.1 23.4 79 23.5 79.9 23.6 80.9 23.7 81.8 24.3 82.7 24.1 83.6 24 84.6 24.1 85.5 24 86.4 24.2 87.4 24.4 88.3 24.3 89.2 24.3 90.1 24.2 91.1 24.3 92 24.2 92.9 24.1 93.9 23.8 94.8 20.3 95.7 18.8 96.7 20.4 97.6 20.9 98.5 20.7 99.4 20.4 100.4 20 101.3 19.7 102.2 19.6 103.2 19.3 104.1 19.1 105 18.9 105.9 18.5 106.9 18.2 107.8 17.7 108.7 17.3 109.7 17 110.6 16.6 111.5 16.2 112.5 15.8 113.4 15.7 114.3 15.6 115.2 15.4 116.2 15.2 117.1 15.1 118 14.8 119 14.5 119.9 14.4 120.8 14.5 121.7 14.4 122.7 14.1 123.6 13.8 124.5 13.6 125.5 13.6 126.4 13.7 127.3 13.7 128.3 13.6 129.2 13.4 130.1 13.4 131 13.2 132 13 132.9 12.9 133.8 12.9 134.8 12.8 135.7 12.7 136.6 12.7 137.5 12.6 138.5 12.6 139.4 12.5 140.3 12.4 141.3 12.5 142.2 12.4 143.1 12.4 144.1 12.4 145 12.3 145.9 12.3 146.8 12.2 147.8 12.2 148.7 12.2 149.6 12.2 150.6 12.2 151.5 12.1 152.4 12.2 153.3 12.2 154.3 12.2 155.2 12.1 156.1 12 157.1 12 158 12.2 158.9 12.3 159.9 12.4 160.8 12.4 161.7 12.4 162.6 12.4 163.6 12.3 164.5 12.3 165.4 12.3 166.4 12.5 167.3 12.5 168.2 12.4 169.1 12.5 170.1 12.4 171 12.3 171.9 12.4 172.9 12.4 173.8 12.4 174.7 12.4 175.7 12.4 176.6 12.4 177.5 12.5 178.4 12.5 179.4 12.4 180.3 12.4 181.2 12.3 182.2 12.3 183.1 12.2 184 11.9 184.9 12 185.9 12 186.8 12.1 187.7 12.2 188.7 12.3 189.6 12.2 190.5 12.2 191.4 12.3 192.4 12.2 193.3 12.2 194.2 12.2 195.2 12 196.1 12.2 197 11.6 198 11.1 198.9 12 199.8 12.2 200.7 12.3 201.7 12.3 202.6 12.3 203.5 12.4 204.5 12.3 205.4 12.2 206.3 12.2 207.2 11.8 208.2 12 209.1 12 210 12.1 211 12.1 211.9 12 212.8 12 213.8 12 214.7 12.2 215.6 12.3 216.5 12.3 217.5 12.2 218.4 12.2 219.3 12.4 220.3 12.3 221.2 12.2 222.1 12.2 223 12.2 224 12.2 224.9 12.5 225.8 12.5 226.8 12.6 227.7 12.7 228.6 12.6 229.6 12.5 230.5 12.5 231.4 12.8 232.3 12.8 233.3 13.2 234.2 13.3 235.1 13.4 236.1 11.2 237 11.6 237.9 11.9 238.8 11.5 239.8 10.9 240.7 9.5 241.6 10 242.6 10 243.5 6.7 244.4 6 245.4 5.8 246.3 5.7 247.2 5.7 248.1 5.7 249.1 5.7 250 5.7 250.9 5.7 251.9 5.7 252.8 5.7 253.7 5.6 254.6 5.6 255.6 5.6 256.5 5.6 257.4 5.6 258.4 5.6 259.3 5.6 260.2 5.6 261.2 5.6 262.1 5.6 263 5.6 263.9 5.6 264.9 5.6 265.8 5.6 266.7 5.6 267.7 5.6 268.6 5.6 269.5 5.6 270.4 5.6 271.4 5.6 272.3 5.6 273.2 5.6 274.2 5.6 275.1 5.6 276 5.6 277 5.6 277.9 5.6 278.8 5.6 279.7 5.6 280.7 5.6 281.6 5.6 282.5 5.6 283.5 5.6 284.4 5.6 285.3 5.6 286.2 5.6 287.2 5.6 288.1 5.6 289 5.6 290 5.6 290.9 5.6 291.8 5.6 292.8 5.6 293.7 5.6 294.6 5.6 295.5 5.6 296.5 5.6 297.4 5.6 298.3 5.6 299.3 5.6" transform="matrix(1,0,0,-1,22.5,365)" fill="#d2dbee" fill-opacity="0.2"></polygon>
</g>
<g clip-path="url(#zr8-c2)">
<polygon points="300 0 0 0 0 19.9 0.9 20.1 1.9 21.1 2.8 21 3.7 21 4.6 20.9 5.6 20.8 6.5 20.8 7.4 20.8 8.4 21 9.3 21.1 10.2 21.1 11.2 21 12.1 20.9 13 21 13.9 21.1 14.9 20.4 15.8 21.2 16.7 21.3 17.7 21.3 18.6 21.3 19.5 21.3 20.4 21.5 21.4 21.1 22.3 21.7 23.2 21.7 24.2 21.7 25.1 21.8 26 22.1 27 22 27.9 21.8 28.8 22.1 29.7 22.1 30.7 22.1 31.6 22.1 32.5 22.2 33.5 22.2 34.4 21.4 35.3 22.3 36.2 22.3 37.2 22.3 38.1 22.5 39 22.5 40 22.5 40.9 22.5 41.8 22.5 42.8 22.7 43.7 22.6 44.6 22.6 45.5 22.5 46.5 22.3 47.4 22.4 48.3 22.3 49.3 22.4 50.2 22.3 51.1 22.3 52 22.3 53 22.2 53.9 22.2 54.8 22.4 55.8 22.5 56.7 22.5 57.6 22.4 58.6 22.7 59.5 22.7 60.4 22.8 61.3 22.8 62.3 23.4 63.2 23.6 64.1 23.6 65.1 23.9 66 24.1 66.9 24.1 67.8 24.1 68.8 24.1 69.7 24.1 70.6 24.1 71.6 24.2 72.5 24.1 73.4 22.5 74.3 23.2 75.3 23.5 76.2 23.7 77.1 23.6 78.1 23.4 79 23.5 79.9 23.6 80.9 23.7 81.8 24.3 82.7 24.1 83.6 24 84.6 24.1 85.5 24 86.4 24.2 87.4 24.4 88.3 24.3 89.2 24.3 90.1 24.2 91.1 24.3 92 24.2 92.9 24.1 93.9 23.8 94.8 20.3 95.7 18.8 96.7 20.4 97.6 20.9 98.5 20.7 99.4 20.4 100.4 20 101.3 19.7 102.2 19.6 103.2 19.3 104.1 19.1 105 18.9 105.9 18.5 106.9 18.2 107.8 17.7 108.7 17.3 109.7 17 110.6 16.6 111.5 16.2 112.5 15.8 113.4 15.7 114.3 15.6 115.2 15.4 116.2 15.2 117.1 15.1 118 14.8 119 14.5 119.9 14.4 120.8 14.5 121.7 14.4 122.7 14.1 123.6 13.8 124.5 13.6 125.5 13.6 126.4 13.7 127.3 13.7 128.3 13.6 129.2 13.4 130.1 13.4 131 13.2 132 13 132.9 12.9 133.8 12.9 134.8 12.8 135.7 12.7 136.6 12.7 137.5 12.6 138.5 12.6 139.4 12.5 140.3 12.4 141.3 12.5 142.2 12.4 143.1 12.4 144.1 12.4 145 12.3 145.9 12.3 146.8 12.2 147.8 12.2 148.7 12.2 149.6 12.2 150.6 12.2 151.5 12.1 152.4 12.2 153.3 12.2 154.3 12.2 155.2 12.1 156.1 12 157.1 12 158 12.2 158.9 12.3 159.9 12.4 160.8 12.4 161.7 12.4 162.6 12.4 163.6 12.3 164.5 12.3 165.4 12.3 166.4 12.5 167.3 12.5 168.2 12.4 169.1 12.5 170.1 12.4 171 12.3 171.9 12.4 172.9 12.4 173.8 12.4 174.7 12.4 175.7 12.4 176.6 12.4 177.5 12.5 178.4 12.5 179.4 12.4 180.3 12.4 181.2 12.3 182.2 12.3 183.1 12.2 184 11.9 184.9 12 185.9 12 186.8 12.1 187.7 12.2 188.7 12.3 189.6 12.2 190.5 12.2 191.4 12.3 192.4 12.2 193.3 12.2 194.2 12.2 195.2 12 196.1 12.2 197 11.6 198 11.1 198.9 12 199.8 12.2 200.7 12.3 201.7 12.3 202.6 12.3 203.5 12.4 204.5 12.3 205.4 12.2 206.3 12.2 207.2 11.8 208.2 12 209.1 12 210 12.1 211 12.1 211.9 12 212.8 12 213.8 12 214.7 12.2 215.6 12.3 216.5 12.3 217.5 12.2 218.4 12.2 219.3 12.4 220.3 12.3 221.2 12.2 222.1 12.2 223 12.2 224 12.2 224.9 12.5 225.8 12.5 226.8 12.6 227.7 12.7 228.6 12.6 229.6 12.5 230.5 12.5 231.4 12.8 232.3 12.8 233.3 13.2 234.2 13.3 235.1 13.4 236.1 11.2 237 11.6 237.9 11.9 238.8 11.5 239.8 10.9 240.7 9.5 241.6 10 242.6 10 243.5 6.7 244.4 6 245.4 5.8 246.3 5.7 247.2 5.7 248.1 5.7 249.1 5.7 250 5.7 250.9 5.7 251.9 5.7 252.8 5.7 253.7 5.6 254.6 5.6 255.6 5.6 256.5 5.6 257.4 5.6 258.4 5.6 259.3 5.6 260.2 5.6 261.2 5.6 262.1 5.6 263 5.6 263.9 5.6 264.9 5.6 265.8 5.6 266.7 5.6 267.7 5.6 268.6 5.6 269.5 5.6 270.4 5.6 271.4 5.6 272.3 5.6 273.2 5.6 274.2 5.6 275.1 5.6 276 5.6 277 5.6 277.9 5.6 278.8 5.6 279.7 5.6 280.7 5.6 281.6 5.6 282.5 5.6 283.5 5.6 284.4 5.6 285.3 5.6 286.2 5.6 287.2 5.6 288.1 5.6 289 5.6 290 5.6 290.9 5.6 291.8 5.6 292.8 5.6 293.7 5.6 294.6 5.6 295.5 5.6 296.5 5.6 297.4 5.6 298.3 5.6 299.3 5.6" transform="matrix(1,0,0,-1,22.5,365)" fill="#8fb0f7" fill-opacity="0"></polygon>
</g>
<g clip-path="url(#zr8-c3)">
<polygon points="300 0 0 0 0 19.9 0.9 20.1 1.9 21.1 2.8 21 3.7 21 4.6 20.9 5.6 20.8 6.5 20.8 7.4 20.8 8.4 21 9.3 21.1 10.2 21.1 11.2 21 12.1 20.9 13 21 13.9 21.1 14.9 20.4 15.8 21.2 16.7 21.3 17.7 21.3 18.6 21.3 19.5 21.3 20.4 21.5 21.4 21.1 22.3 21.7 23.2 21.7 24.2 21.7 25.1 21.8 26 22.1 27 22 27.9 21.8 28.8 22.1 29.7 22.1 30.7 22.1 31.6 22.1 32.5 22.2 33.5 22.2 34.4 21.4 35.3 22.3 36.2 22.3 37.2 22.3 38.1 22.5 39 22.5 40 22.5 40.9 22.5 41.8 22.5 42.8 22.7 43.7 22.6 44.6 22.6 45.5 22.5 46.5 22.3 47.4 22.4 48.3 22.3 49.3 22.4 50.2 22.3 51.1 22.3 52 22.3 53 22.2 53.9 22.2 54.8 22.4 55.8 22.5 56.7 22.5 57.6 22.4 58.6 22.7 59.5 22.7 60.4 22.8 61.3 22.8 62.3 23.4 63.2 23.6 64.1 23.6 65.1 23.9 66 24.1 66.9 24.1 67.8 24.1 68.8 24.1 69.7 24.1 70.6 24.1 71.6 24.2 72.5 24.1 73.4 22.5 74.3 23.2 75.3 23.5 76.2 23.7 77.1 23.6 78.1 23.4 79 23.5 79.9 23.6 80.9 23.7 81.8 24.3 82.7 24.1 83.6 24 84.6 24.1 85.5 24 86.4 24.2 87.4 24.4 88.3 24.3 89.2 24.3 90.1 24.2 91.1 24.3 92 24.2 92.9 24.1 93.9 23.8 94.8 20.3 95.7 18.8 96.7 20.4 97.6 20.9 98.5 20.7 99.4 20.4 100.4 20 101.3 19.7 102.2 19.6 103.2 19.3 104.1 19.1 105 18.9 105.9 18.5 106.9 18.2 107.8 17.7 108.7 17.3 109.7 17 110.6 16.6 111.5 16.2 112.5 15.8 113.4 15.7 114.3 15.6 115.2 15.4 116.2 15.2 117.1 15.1 118 14.8 119 14.5 119.9 14.4 120.8 14.5 121.7 14.4 122.7 14.1 123.6 13.8 124.5 13.6 125.5 13.6 126.4 13.7 127.3 13.7 128.3 13.6 129.2 13.4 130.1 13.4 131 13.2 132 13 132.9 12.9 133.8 12.9 134.8 12.8 135.7 12.7 136.6 12.7 137.5 12.6 138.5 12.6 139.4 12.5 140.3 12.4 141.3 12.5 142.2 12.4 143.1 12.4 144.1 12.4 145 12.3 145.9 12.3 146.8 12.2 147.8 12.2 148.7 12.2 149.6 12.2 150.6 12.2 151.5 12.1 152.4 12.2 153.3 12.2 154.3 12.2 155.2 12.1 156.1 12 157.1 12 158 12.2 158.9 12.3 159.9 12.4 160.8 12.4 161.7 12.4 162.6 12.4 163.6 12.3 164.5 12.3 165.4 12.3 166.4 12.5 167.3 12.5 168.2 12.4 169.1 12.5 170.1 12.4 171 12.3 171.9 12.4 172.9 12.4 173.8 12.4 174.7 12.4 175.7 12.4 176.6 12.4 177.5 12.5 178.4 12.5 179.4 12.4 180.3 12.4 181.2 12.3 182.2 12.3 183.1 12.2 184 11.9 184.9 12 185.9 12 186.8 12.1 187.7 12.2 188.7 12.3 189.6 12.2 190.5 12.2 191.4 12.3 192.4 12.2 193.3 12.2 194.2 12.2 195.2 12 196.1 12.2 197 11.6 198 11.1 198.9 12 199.8 12.2 200.7 12.3 201.7 12.3 202.6 12.3 203.5 12.4 204.5 12.3 205.4 12.2 206.3 12.2 207.2 11.8 208.2 12 209.1 12 210 12.1 211 12.1 211.9 12 212.8 12 213.8 12 214.7 12.2 215.6 12.3 216.5 12.3 217.5 12.2 218.4 12.2 219.3 12.4 220.3 12.3 221.2 12.2 222.1 12.2 223 12.2 224 12.2 224.9 12.5 225.8 12.5 226.8 12.6 227.7 12.7 228.6 12.6 229.6 12.5 230.5 12.5 231.4 12.8 232.3 12.8 233.3 13.2 234.2 13.3 235.1 13.4 236.1 11.2 237 11.6 237.9 11.9 238.8 11.5 239.8 10.9 240.7 9.5 241.6 10 242.6 10 243.5 6.7 244.4 6 245.4 5.8 246.3 5.7 247.2 5.7 248.1 5.7 249.1 5.7 250 5.7 250.9 5.7 251.9 5.7 252.8 5.7 253.7 5.6 254.6 5.6 255.6 5.6 256.5 5.6 257.4 5.6 258.4 5.6 259.3 5.6 260.2 5.6 261.2 5.6 262.1 5.6 263 5.6 263.9 5.6 264.9 5.6 265.8 5.6 266.7 5.6 267.7 5.6 268.6 5.6 269.5 5.6 270.4 5.6 271.4 5.6 272.3 5.6 273.2 5.6 274.2 5.6 275.1 5.6 276 5.6 277 5.6 277.9 5.6 278.8 5.6 279.7 5.6 280.7 5.6 281.6 5.6 282.5 5.6 283.5 5.6 284.4 5.6 285.3 5.6 286.2 5.6 287.2 5.6 288.1 5.6 289 5.6 290 5.6 290.9 5.6 291.8 5.6 292.8 5.6 293.7 5.6 294.6 5.6 295.5 5.6 296.5 5.6 297.4 5.6 298.3 5.6 299.3 5.6" transform="matrix(1,0,0,-1,22.5,365)" fill="#d2dbee" fill-opacity="0.2"></polygon>
</g>
<g clip-path="url(#zr8-c1)">
<polyline points="0 19.9 0.9 20.1 1.9 21.1 2.8 21 3.7 21 4.6 20.9 5.6 20.8 6.5 20.8 7.4 20.8 8.4 21 9.3 21.1 10.2 21.1 11.2 21 12.1 20.9 13 21 13.9 21.1 14.9 20.4 15.8 21.2 16.7 21.3 17.7 21.3 18.6 21.3 19.5 21.3 20.4 21.5 21.4 21.1 22.3 21.7 23.2 21.7 24.2 21.7 25.1 21.8 26 22.1 27 22 27.9 21.8 28.8 22.1 29.7 22.1 30.7 22.1 31.6 22.1 32.5 22.2 33.5 22.2 34.4 21.4 35.3 22.3 36.2 22.3 37.2 22.3 38.1 22.5 39 22.5 40 22.5 40.9 22.5 41.8 22.5 42.8 22.7 43.7 22.6 44.6 22.6 45.5 22.5 46.5 22.3 47.4 22.4 48.3 22.3 49.3 22.4 50.2 22.3 51.1 22.3 52 22.3 53 22.2 53.9 22.2 54.8 22.4 55.8 22.5 56.7 22.5 57.6 22.4 58.6 22.7 59.5 22.7 60.4 22.8 61.3 22.8 62.3 23.4 63.2 23.6 64.1 23.6 65.1 23.9 66 24.1 66.9 24.1 67.8 24.1 68.8 24.1 69.7 24.1 70.6 24.1 71.6 24.2 72.5 24.1 73.4 22.5 74.3 23.2 75.3 23.5 76.2 23.7 77.1 23.6 78.1 23.4 79 23.5 79.9 23.6 80.9 23.7 81.8 24.3 82.7 24.1 83.6 24 84.6 24.1 85.5 24 86.4 24.2 87.4 24.4 88.3 24.3 89.2 24.3 90.1 24.2 91.1 24.3 92 24.2 92.9 24.1 93.9 23.8 94.8 20.3 95.7 18.8 96.7 20.4 97.6 20.9 98.5 20.7 99.4 20.4 100.4 20 101.3 19.7 102.2 19.6 103.2 19.3 104.1 19.1 105 18.9 105.9 18.5 106.9 18.2 107.8 17.7 108.7 17.3 109.7 17 110.6 16.6 111.5 16.2 112.5 15.8 113.4 15.7 114.3 15.6 115.2 15.4 116.2 15.2 117.1 15.1 118 14.8 119 14.5 119.9 14.4 120.8 14.5 121.7 14.4 122.7 14.1 123.6 13.8 124.5 13.6 125.5 13.6 126.4 13.7 127.3 13.7 128.3 13.6 129.2 13.4 130.1 13.4 131 13.2 132 13 132.9 12.9 133.8 12.9 134.8 12.8 135.7 12.7 136.6 12.7 137.5 12.6 138.5 12.6 139.4 12.5 140.3 12.4 141.3 12.5 142.2 12.4 143.1 12.4 144.1 12.4 145 12.3 145.9 12.3 146.8 12.2 147.8 12.2 148.7 12.2 149.6 12.2 150.6 12.2 151.5 12.1 152.4 12.2 153.3 12.2 154.3 12.2 155.2 12.1 156.1 12 157.1 12 158 12.2 158.9 12.3 159.9 12.4 160.8 12.4 161.7 12.4 162.6 12.4 163.6 12.3 164.5 12.3 165.4 12.3 166.4 12.5 167.3 12.5 168.2 12.4 169.1 12.5 170.1 12.4 171 12.3 171.9 12.4 172.9 12.4 173.8 12.4 174.7 12.4 175.7 12.4 176.6 12.4 177.5 12.5 178.4 12.5 179.4 12.4 180.3 12.4 181.2 12.3 182.2 12.3 183.1 12.2 184 11.9 184.9 12 185.9 12 186.8 12.1 187.7 12.2 188.7 12.3 189.6 12.2 190.5 12.2 191.4 12.3 192.4 12.2 193.3 12.2 194.2 12.2 195.2 12 196.1 12.2 197 11.6 198 11.1 198.9 12 199.8 12.2 200.7 12.3 201.7 12.3 202.6 12.3 203.5 12.4 204.5 12.3 205.4 12.2 206.3 12.2 207.2 11.8 208.2 12 209.1 12 210 12.1 211 12.1 211.9 12 212.8 12 213.8 12 214.7 12.2 215.6 12.3 216.5 12.3 217.5 12.2 218.4 12.2 219.3 12.4 220.3 12.3 221.2 12.2 222.1 12.2 223 12.2 224 12.2 224.9 12.5 225.8 12.5 226.8 12.6 227.7 12.7 228.6 12.6 229.6 12.5 230.5 12.5 231.4 12.8 232.3 12.8 233.3 13.2 234.2 13.3 235.1 13.4 236.1 11.2 237 11.6 237.9 11.9 238.8 11.5 239.8 10.9 240.7 9.5 241.6 10 242.6 10 243.5 6.7 244.4 6 245.4 5.8 246.3 5.7 247.2 5.7 248.1 5.7 249.1 5.7 250 5.7 250.9 5.7 251.9 5.7 252.8 5.7 253.7 5.6 254.6 5.6 255.6 5.6 256.5 5.6 257.4 5.6 258.4 5.6 259.3 5.6 260.2 5.6 261.2 5.6 262.1 5.6 263 5.6 263.9 5.6 264.9 5.6 265.8 5.6 266.7 5.6 267.7 5.6 268.6 5.6 269.5 5.6 270.4 5.6 271.4 5.6 272.3 5.6 273.2 5.6 274.2 5.6 275.1 5.6 276 5.6 277 5.6 277.9 5.6 278.8 5.6 279.7 5.6 280.7 5.6 281.6 5.6 282.5 5.6 283.5 5.6 284.4 5.6 285.3 5.6 286.2 5.6 287.2 5.6 288.1 5.6 289 5.6 290 5.6 290.9 5.6 291.8 5.6 292.8 5.6 293.7 5.6 294.6 5.6 295.5 5.6 296.5 5.6 297.4 5.6 298.3 5.6 299.3 5.6" transform="matrix(1,0,0,-1,22.5,365)" fill="none" stroke="#d2dbee" stroke-width="0.5"></polyline>
</g>
<g clip-path="url(#zr8-c2)">
<polyline points="0 19.9 0.9 20.1 1.9 21.1 2.8 21 3.7 21 4.6 20.9 5.6 20.8 6.5 20.8 7.4 20.8 8.4 21 9.3 21.1 10.2 21.1 11.2 21 12.1 20.9 13 21 13.9 21.1 14.9 20.4 15.8 21.2 16.7 21.3 17.7 21.3 18.6 21.3 19.5 21.3 20.4 21.5 21.4 21.1 22.3 21.7 23.2 21.7 24.2 21.7 25.1 21.8 26 22.1 27 22 27.9 21.8 28.8 22.1 29.7 22.1 30.7 22.1 31.6 22.1 32.5 22.2 33.5 22.2 34.4 21.4 35.3 22.3 36.2 22.3 37.2 22.3 38.1 22.5 39 22.5 40 22.5 40.9 22.5 41.8 22.5 42.8 22.7 43.7 22.6 44.6 22.6 45.5 22.5 46.5 22.3 47.4 22.4 48.3 22.3 49.3 22.4 50.2 22.3 51.1 22.3 52 22.3 53 22.2 53.9 22.2 54.8 22.4 55.8 22.5 56.7 22.5 57.6 22.4 58.6 22.7 59.5 22.7 60.4 22.8 61.3 22.8 62.3 23.4 63.2 23.6 64.1 23.6 65.1 23.9 66 24.1 66.9 24.1 67.8 24.1 68.8 24.1 69.7 24.1 70.6 24.1 71.6 24.2 72.5 24.1 73.4 22.5 74.3 23.2 75.3 23.5 76.2 23.7 77.1 23.6 78.1 23.4 79 23.5 79.9 23.6 80.9 23.7 81.8 24.3 82.7 24.1 83.6 24 84.6 24.1 85.5 24 86.4 24.2 87.4 24.4 88.3 24.3 89.2 24.3 90.1 24.2 91.1 24.3 92 24.2 92.9 24.1 93.9 23.8 94.8 20.3 95.7 18.8 96.7 20.4 97.6 20.9 98.5 20.7 99.4 20.4 100.4 20 101.3 19.7 102.2 19.6 103.2 19.3 104.1 19.1 105 18.9 105.9 18.5 106.9 18.2 107.8 17.7 108.7 17.3 109.7 17 110.6 16.6 111.5 16.2 112.5 15.8 113.4 15.7 114.3 15.6 115.2 15.4 116.2 15.2 117.1 15.1 118 14.8 119 14.5 119.9 14.4 120.8 14.5 121.7 14.4 122.7 14.1 123.6 13.8 124.5 13.6 125.5 13.6 126.4 13.7 127.3 13.7 128.3 13.6 129.2 13.4 130.1 13.4 131 13.2 132 13 132.9 12.9 133.8 12.9 134.8 12.8 135.7 12.7 136.6 12.7 137.5 12.6 138.5 12.6 139.4 12.5 140.3 12.4 141.3 12.5 142.2 12.4 143.1 12.4 144.1 12.4 145 12.3 145.9 12.3 146.8 12.2 147.8 12.2 148.7 12.2 149.6 12.2 150.6 12.2 151.5 12.1 152.4 12.2 153.3 12.2 154.3 12.2 155.2 12.1 156.1 12 157.1 12 158 12.2 158.9 12.3 159.9 12.4 160.8 12.4 161.7 12.4 162.6 12.4 163.6 12.3 164.5 12.3 165.4 12.3 166.4 12.5 167.3 12.5 168.2 12.4 169.1 12.5 170.1 12.4 171 12.3 171.9 12.4 172.9 12.4 173.8 12.4 174.7 12.4 175.7 12.4 176.6 12.4 177.5 12.5 178.4 12.5 179.4 12.4 180.3 12.4 181.2 12.3 182.2 12.3 183.1 12.2 184 11.9 184.9 12 185.9 12 186.8 12.1 187.7 12.2 188.7 12.3 189.6 12.2 190.5 12.2 191.4 12.3 192.4 12.2 193.3 12.2 194.2 12.2 195.2 12 196.1 12.2 197 11.6 198 11.1 198.9 12 199.8 12.2 200.7 12.3 201.7 12.3 202.6 12.3 203.5 12.4 204.5 12.3 205.4 12.2 206.3 12.2 207.2 11.8 208.2 12 209.1 12 210 12.1 211 12.1 211.9 12 212.8 12 213.8 12 214.7 12.2 215.6 12.3 216.5 12.3 217.5 12.2 218.4 12.2 219.3 12.4 220.3 12.3 221.2 12.2 222.1 12.2 223 12.2 224 12.2 224.9 12.5 225.8 12.5 226.8 12.6 227.7 12.7 228.6 12.6 229.6 12.5 230.5 12.5 231.4 12.8 232.3 12.8 233.3 13.2 234.2 13.3 235.1 13.4 236.1 11.2 237 11.6 237.9 11.9 238.8 11.5 239.8 10.9 240.7 9.5 241.6 10 242.6 10 243.5 6.7 244.4 6 245.4 5.8 246.3 5.7 247.2 5.7 248.1 5.7 249.1 5.7 250 5.7 250.9 5.7 251.9 5.7 252.8 5.7 253.7 5.6 254.6 5.6 255.6 5.6 256.5 5.6 257.4 5.6 258.4 5.6 259.3 5.6 260.2 5.6 261.2 5.6 262.1 5.6 263 5.6 263.9 5.6 264.9 5.6 265.8 5.6 266.7 5.6 267.7 5.6 268.6 5.6 269.5 5.6 270.4 5.6 271.4 5.6 272.3 5.6 273.2 5.6 274.2 5.6 275.1 5.6 276 5.6 277 5.6 277.9 5.6 278.8 5.6 279.7 5.6 280.7 5.6 281.6 5.6 282.5 5.6 283.5 5.6 284.4 5.6 285.3 5.6 286.2 5.6 287.2 5.6 288.1 5.6 289 5.6 290 5.6 290.9 5.6 291.8 5.6 292.8 5.6 293.7 5.6 294.6 5.6 295.5 5.6 296.5 5.6 297.4 5.6 298.3 5.6 299.3 5.6" transform="matrix(1,0,0,-1,22.5,365)" fill="none" stroke="#fff" stroke-width="0.5" stroke-opacity="0.45"></polyline>
</g>
<g clip-path="url(#zr8-c3)">
<polyline points="0 19.9 0.9 20.1 1.9 21.1 2.8 21 3.7 21 4.6 20.9 5.6 20.8 6.5 20.8 7.4 20.8 8.4 21 9.3 21.1 10.2 21.1 11.2 21 12.1 20.9 13 21 13.9 21.1 14.9 20.4 15.8 21.2 16.7 21.3 17.7 21.3 18.6 21.3 19.5 21.3 20.4 21.5 21.4 21.1 22.3 21.7 23.2 21.7 24.2 21.7 25.1 21.8 26 22.1 27 22 27.9 21.8 28.8 22.1 29.7 22.1 30.7 22.1 31.6 22.1 32.5 22.2 33.5 22.2 34.4 21.4 35.3 22.3 36.2 22.3 37.2 22.3 38.1 22.5 39 22.5 40 22.5 40.9 22.5 41.8 22.5 42.8 22.7 43.7 22.6 44.6 22.6 45.5 22.5 46.5 22.3 47.4 22.4 48.3 22.3 49.3 22.4 50.2 22.3 51.1 22.3 52 22.3 53 22.2 53.9 22.2 54.8 22.4 55.8 22.5 56.7 22.5 57.6 22.4 58.6 22.7 59.5 22.7 60.4 22.8 61.3 22.8 62.3 23.4 63.2 23.6 64.1 23.6 65.1 23.9 66 24.1 66.9 24.1 67.8 24.1 68.8 24.1 69.7 24.1 70.6 24.1 71.6 24.2 72.5 24.1 73.4 22.5 74.3 23.2 75.3 23.5 76.2 23.7 77.1 23.6 78.1 23.4 79 23.5 79.9 23.6 80.9 23.7 81.8 24.3 82.7 24.1 83.6 24 84.6 24.1 85.5 24 86.4 24.2 87.4 24.4 88.3 24.3 89.2 24.3 90.1 24.2 91.1 24.3 92 24.2 92.9 24.1 93.9 23.8 94.8 20.3 95.7 18.8 96.7 20.4 97.6 20.9 98.5 20.7 99.4 20.4 100.4 20 101.3 19.7 102.2 19.6 103.2 19.3 104.1 19.1 105 18.9 105.9 18.5 106.9 18.2 107.8 17.7 108.7 17.3 109.7 17 110.6 16.6 111.5 16.2 112.5 15.8 113.4 15.7 114.3 15.6 115.2 15.4 116.2 15.2 117.1 15.1 118 14.8 119 14.5 119.9 14.4 120.8 14.5 121.7 14.4 122.7 14.1 123.6 13.8 124.5 13.6 125.5 13.6 126.4 13.7 127.3 13.7 128.3 13.6 129.2 13.4 130.1 13.4 131 13.2 132 13 132.9 12.9 133.8 12.9 134.8 12.8 135.7 12.7 136.6 12.7 137.5 12.6 138.5 12.6 139.4 12.5 140.3 12.4 141.3 12.5 142.2 12.4 143.1 12.4 144.1 12.4 145 12.3 145.9 12.3 146.8 12.2 147.8 12.2 148.7 12.2 149.6 12.2 150.6 12.2 151.5 12.1 152.4 12.2 153.3 12.2 154.3 12.2 155.2 12.1 156.1 12 157.1 12 158 12.2 158.9 12.3 159.9 12.4 160.8 12.4 161.7 12.4 162.6 12.4 163.6 12.3 164.5 12.3 165.4 12.3 166.4 12.5 167.3 12.5 168.2 12.4 169.1 12.5 170.1 12.4 171 12.3 171.9 12.4 172.9 12.4 173.8 12.4 174.7 12.4 175.7 12.4 176.6 12.4 177.5 12.5 178.4 12.5 179.4 12.4 180.3 12.4 181.2 12.3 182.2 12.3 183.1 12.2 184 11.9 184.9 12 185.9 12 186.8 12.1 187.7 12.2 188.7 12.3 189.6 12.2 190.5 12.2 191.4 12.3 192.4 12.2 193.3 12.2 194.2 12.2 195.2 12 196.1 12.2 197 11.6 198 11.1 198.9 12 199.8 12.2 200.7 12.3 201.7 12.3 202.6 12.3 203.5 12.4 204.5 12.3 205.4 12.2 206.3 12.2 207.2 11.8 208.2 12 209.1 12 210 12.1 211 12.1 211.9 12 212.8 12 213.8 12 214.7 12.2 215.6 12.3 216.5 12.3 217.5 12.2 218.4 12.2 219.3 12.4 220.3 12.3 221.2 12.2 222.1 12.2 223 12.2 224 12.2 224.9 12.5 225.8 12.5 226.8 12.6 227.7 12.7 228.6 12.6 229.6 12.5 230.5 12.5 231.4 12.8 232.3 12.8 233.3 13.2 234.2 13.3 235.1 13.4 236.1 11.2 237 11.6 237.9 11.9 238.8 11.5 239.8 10.9 240.7 9.5 241.6 10 242.6 10 243.5 6.7 244.4 6 245.4 5.8 246.3 5.7 247.2 5.7 248.1 5.7 249.1 5.7 250 5.7 250.9 5.7 251.9 5.7 252.8 5.7 253.7 5.6 254.6 5.6 255.6 5.6 256.5 5.6 257.4 5.6 258.4 5.6 259.3 5.6 260.2 5.6 261.2 5.6 262.1 5.6 263 5.6 263.9 5.6 264.9 5.6 265.8 5.6 266.7 5.6 267.7 5.6 268.6 5.6 269.5 5.6 270.4 5.6 271.4 5.6 272.3 5.6 273.2 5.6 274.2 5.6 275.1 5.6 276 5.6 277 5.6 277.9 5.6 278.8 5.6 279.7 5.6 280.7 5.6 281.6 5.6 282.5 5.6 283.5 5.6 284.4 5.6 285.3 5.6 286.2 5.6 287.2 5.6 288.1 5.6 289 5.6 290 5.6 290.9 5.6 291.8 5.6 292.8 5.6 293.7 5.6 294.6 5.6 295.5 5.6 296.5 5.6 297.4 5.6 298.3 5.6 299.3 5.6" transform="matrix(1,0,0,-1,22.5,365)" fill="none" stroke="#d2dbee" stroke-width="0.5"></polyline>
</g>
<path d="M-10 -10l187.3887 0l0 34l-187.3887 0Z" transform="translate(83.8057 10)" fill="rgb(0,0,0)" fill-opacity="0" stroke="#ccc" stroke-width="0"></path>
<path d="M3.5 0L21.5 0A3.5 3.5 0 0 1 25 3.5L25 10.5A3.5 3.5 0 0 1 21.5 14L3.5 14A3.5 3.5 0 0 1 0 10.5L0 3.5A3.5 3.5 0 0 1 3.5 0" transform="translate(83.8057 10)" fill="#FFB300"></path>
<text dominant-baseline="central" text-anchor="start" style="font-size:12px;font-family:sans-serif;" x="30" y="7" transform="translate(83.8057 10)" fill="white">Channels</text>
<path d="M3.5 0L21.5 0A3.5 3.5 0 0 1 25 3.5L25 10.5A3.5 3.5 0 0 1 21.5 14L3.5 14A3.5 3.5 0 0 1 0 10.5L0 3.5A3.5 3.5 0 0 1 3.5 0" transform="translate(174.5068 10)" fill="url(#zr8-g0)"></path>
<text dominant-baseline="central" text-anchor="start" style="font-size:12px;font-family:sans-serif;" x="30" y="7" transform="translate(174.5068 10)" fill="white">Capacity</text>
<path d="M0 0l300 0l0 30l-300 0Z" transform="matrix(1,0,0,-1,22.5,365)" fill="none"></path>
<path d="M0 0l300 0l0 30l-300 0Z" transform="matrix(1,0,0,-1,22.5,365)" fill="rgb(135,175,255)" fill-opacity="0.2"></path>
<path d="M3.5 0.5L296.5 0.5A3 3 0 0 1 299.5 3.5L299.5 26.5A3 3 0 0 1 296.5 29.5L3.5 29.5A3 3 0 0 1 0.5 26.5L0.5 3.5A3 3 0 0 1 3.5 0.5" transform="matrix(1,0,0,-1,22.5,365)" fill="rgb(0,0,0)" fill-opacity="0" stroke="#d2dbee"></path>
<path d="M0 1.628L0 2M0 0L0 0.375M-0.1 0.375L0.1 0.375A0.1 0.1 0 0 1 0.2 0.475L0.2 1.525A0.1 0.1 0 0 1 0.1 1.625L-0.1 1.625A0.1 0.1 0 0 1 -0.2 1.525L-0.2 0.475A0.1 0.1 0 0 1 -0.1 0.375Z" transform="matrix(15,0,0,-15,23.5,365)" fill="#fff" stroke="#ACB8D1" stroke-width="0.06666666666666667"></path>
<path d="M0 1.628L0 2M0 0L0 0.375M-0.1 0.375L0.1 0.375A0.1 0.1 0 0 1 0.2 0.475L0.2 1.525A0.1 0.1 0 0 1 0.1 1.625L-0.1 1.625A0.1 0.1 0 0 1 -0.2 1.525L-0.2 0.475A0.1 0.1 0 0 1 -0.1 0.375Z" transform="matrix(15,0,0,-15,321.5,365)" fill="#fff" stroke="#ACB8D1" stroke-width="0.06666666666666667"></path>
<g clip-path="url(#zr8-c4)">
<path d="M290 148.1626L289.8788 150.046L289.7577 147.7801L289.6365 145.3624L289.1518 139.8114L289.0307 138.0945L288.9095 135.9103L288.7883 132.9524L288.0613 133.0954L287.819 134.0065L287.4555 134.792L286.8496 134.3218L286.7285 135.1832L286.4861 136.2899L286.0015 135.7293L285.638 136.6608L285.5168 135.7439L285.2745 136.7746L285.1533 135.8256L284.5475 134.1116L284.184 132.9932L283.457 133.0896L282.73 133.1217L282.2453 133.6707L282.1241 134.4591L282.003 133.6532L281.3971 133.2706L281.0336 332L280.4278 132.3158L280.1855 133.0049L279.9431 132.2048L279.7008 140.8918L279.5796 130.2952L278.9738 130.777L278.8526 133.5072L278.7314 129.9243L278.0045 134.4708L277.8833 129.4513L277.1563 134.2722L277.0351 129.7637L276.7928 130.6864L276.6716 129.387L276.3081 131.799L276.187 127.9533L275.8235 125.8042L275.5811 126.4787L275.4599 132.491L275.3388 126.0436L274.9753 124.972L274.6118 133.8663L274.4906 124.7326L273.8848 125.3633L273.7636 134.427L273.6424 124.7413L273.2789 123.7368L273.1578 123.0302L272.9154 125.1034L272.7943 121.2782L272.6731 119.8503L272.0673 122.0374L271.9461 120.6154L271.5826 119.4298L271.2191 123.5003L271.0979 120.3555L270.4921 119.9116L270.3709 126.905L270.2498 119.2897L270.0074 120.1131L269.8863 118.8984L269.5227 121.9264L269.4016 118.9889L269.1592 119.8182L269.0381 118.6152L268.6746 127.3927L268.5534 118.5743L267.9476 119.2108L267.8264 132.7509L267.7052 118.767L267.3417 117.7216L266.9782 128.8848L266.8571 117.1552L266.4936 116.5128L266.1301 121.3074L266.0089 115.9142L265.6454 116.9887L264.9184 115.5492L264.7972 114.5388L264.0702 114.0483L263.5856 113.3825L262.9797 114.0687L262.8586 114.8046L262.4951 115.4528L262.3739 114.1038L262.0104 114.787L261.8892 113.9548L261.5257 112.3839L261.1622 113L261.041 112.0802L260.7987 112.9562L260.3141 113.6745L259.7082 114.2819L259.4659 115.228L259.1024 116.7405L258.9812 115.6572L258.6177 116.5712L258.0119 116.139L257.7695 116.8515L257.6484 115.4557L257.0425 116.2529L256.3155 116.3288L256.0732 117.2515L255.7097 116.4339L255.5885 117.2165L255.225 118.1158L254.6192 117.634L254.0134 118.6706L253.8922 117.3917L253.6499 115.882L253.1652 115.2163L252.5593 113.6395L252.317 114.6644L251.8324 115.7886L251.59 114.8104L251.3477 111.5838L251.1053 112.3342L250.863 111.1137L250.2572 111.5488L250.0148 110.7954L249.2878 110.9852L249.1667 109.4756L248.9243 110.8596L248.8032 102.9844L248.3185 100.0118L248.0762 100.8353L247.5915 100.2746L247.4703 98.8234L247.228 98.0204L247.1068 96.8057L246.9857 96.0669L246.8645 94.7442L246.3798 94.093L246.1375 93.3864L245.5316 94.1485L244.8046 93.8506L244.0777 94.166L243.3506 94.0872L242.866 93.474L242.3813 92.6826L242.0178 93.8068L241.7755 93.0038L232.2033 114.4366L232.0821 110.115L231.9609 108.6696L231.8398 107.0782L231.7186 105.9803L231.5974 105.1072L231.4763 104.2225L231.3551 103.4516L231.2339 102.5318L231.1128 101.6529L230.8704 100.9638L230.6281 99.5709L230.5069 98.7008L229.9011 99.676L229.5376 100.7594L229.2953 102.6749L229.0529 101.5711L228.4471 100.7827L228.2047 100.0527L227.8412 100.7564L227.4777 100.1024L227.3566 98.8176L227.1142 96.0815L226.9931 94.5193L226.8719 91.2927L226.2661 92.3468L226.1449 93.1966L225.7814 94.2156L225.0544 94.2215L224.4486 95.2084L224.2062 93.6871L224.0851 92.8491L223.6004 91.2986L223.2369 90.6737L222.5099 90.9686L221.7829 91.4592L221.0559 91.6723L220.5712 90.2999L220.3289 91.0124L220.0865 92.3498L219.8442 93.4039L219.3595 94.1631L219.2384 95.1676L219.1172 95.9122L218.996 97.1269L218.8749 98.1868L218.7537 112.8365L218.6325 139.2829L202.8808 143.8264L202.6385 142.9417L202.0326 162.1173L201.0633 155.9824L200.9421 147.7276L200.821 143.8235L200.6998 142.492L200.5786 141.2598L200.4575 140.34L200.3363 137.931L200.2151 137.1922L200.094 136.0067L199.9728 134.8241L199.7305 135.5044L199.6093 136.4505L199.367 137.2623L199.2458 138.2492L199.1246 139.0552L198.8823 140.7312L198.7611 141.6686L198.64 143.6775L198.5188 147.1144L198.3976 146.326L198.0341 147.3392L197.913 148.1276L197.6706 149.3131L197.3071 150.3848L197.0648 151.3162L196.9436 152.1426L196.8224 153.0741L196.7013 153.7807L196.459 154.7064L196.2166 155.4364L196.0954 156.1576L195.8531 157.1796L195.7319 158.2162L195.6108 159.1448L195.3685 159.828L195.1261 161.1012L195.0049 161.8049L194.8838 162.6312L194.7626 163.7292L194.6414 164.503L194.5203 165.4374L194.3991 166.3601L194.1568 168.0946L194.0356 169.0144L193.9144 170.3955L193.7933 171.4234L193.6721 172.2789L193.5509 173.2922L193.4298 174.3872L193.3086 176.2297L193.1874 177.1174L193.0663 178.3204L192.9451 179.4096L192.8239 180.5046L192.7028 181.5441L192.5816 182.4113L192.2181 183.6144L192.0969 184.7415L191.9758 185.7868L191.8546 186.6307L191.7334 188.2163L191.6123 189.285L191.4911 190.0296L191.3699 191.3378L191.2488 192.5408L191.1276 193.3642L191.0064 194.6257L190.8853 195.5163L190.7641 196.9734L190.6429 199.102L190.5218 200.1386L190.4006 201.1373L189.9159 201.7797L189.5524 202.7754L189.3101 203.4762L188.7043 204.7698L188.4619 205.9816L188.2196 206.913L187.9772 208.0489L187.8561 208.7818L187.3714 209.8827L187.1291 210.9572L186.8867 212.1661L186.6444 213.9678L186.4021 215.1971L186.2809 216.3914L186.0386 217.5535L185.5539 218.2718L184.9481 217.5097L184.3422 218.2572L184.0999 219.4866L183.9787 220.6662L183.8576 221.5977L183.7364 222.4066L183.4941 223.7906L183.2517 224.9616L183.1306 225.7208L183.0094 226.4887L182.8882 227.9546L182.7671 228.667L182.4036 229.5051L181.6766 228.851L181.1919 228.0334L180.7072 227.4436L180.3437 228.4743L180.1014 229.2978L179.7379 229.9548L179.4955 230.7694L179.132 231.6075L178.7685 232.3521L178.5262 233.5756L178.1627 234.9217L177.9204 235.6692L177.7992 236.5131L177.5569 237.3716L176.951 238.0578L176.224 238.6184L175.9817 239.7864L175.3759 240.2244L175.1335 240.9632L174.4065 240.6536L174.043 241.2844L173.5584 242.0377L172.8314 242.6013L172.4678 243.4335L171.862 244.0759L171.135 243.8773L170.8927 244.8176L170.1657 245.0745L169.4387 245.0482L168.8328 245.6994L168.227 246.2776L167.9847 246.99L167.3788 247.431L166.6518 247.4018L166.2883 246.7448L165.9248 247.358L165.1978 247.3784L164.4708 247.6383L163.7438 247.1652L163.0168 247.1273L162.5322 248.085L162.411 248.8092L162.0475 249.4195L161.8051 250.2371L161.1993 249.3961L160.957 248.6515L160.5935 247.6558L160.4723 246.6688L159.9876 246.0527L159.8665 244.8906L159.3818 244.1956L158.6548 244.5051L157.9278 244.5898L157.4431 245.8425L156.7161 245.7315L156.2315 246.479L155.6256 244.654L155.3833 243.6437L154.6563 243.7547L154.2928 244.4701L153.5658 244.727L153.3234 243.8978L153.0811 245.0249L152.5964 244.1868L152.3541 245.3753L151.7483 244.9168L151.0213 245.1417L150.2943 245.241L149.9308 244.5694L149.2038 244.5256L148.5979 243.9065L147.8709 243.8773L147.1439 243.9474L146.4169 244.108L146.0534 244.9344L145.8111 245.6936L145.0841 245.8863L144.4782 246.5871L144.1147 247.3813L143.8724 248.4559L142.5396 251.081L141.9337 250.313L141.6914 249.5509L141.2067 248.7566L141.0856 247.6208L140.7221 248.2486L140.4797 247.3726L139.9951 248.2894L139.7527 247.5156L139.5104 246.4177L139.2681 247.5828L138.541 247.5069L137.9352 247.1127L137.814 246.3038L137.2082 246.9754L136.4812 247.3463L135.7542 248.088L135.3907 249.4837L135.2695 250.386L135.1484 247.6646L135.0272 246.9433L134.4214 247.5215L134.179 248.8063L134.0579 254.3222L133.5732 255.0463L133.452 260.7374L133.3309 250.4911L133.2097 248.4179L132.8462 249.1362L132.725 248.196L132.3615 247.4806L132.1192 246.6601L131.8769 245.7782L131.3922 246.4294L130.6652 245.895L130.1805 245.1446L129.4535 245.8366L129.09 246.6659L128.8477 247.8806L128.363 247.2645L127.7572 249.9655L127.636 253.8462L118.3061 254.5645L118.185 252.6198L118.0638 251.8548L117.8215 251.0313L117.5791 250.3101L116.8521 248.961L116.1251 248.8063L115.5193 249.4458L115.1558 250.2546L114.9135 251.2182L114.7923 250.2955L114.6711 249.5246L114.3076 250.7481L113.8229 249.4779L113.5806 248.5727L113.4594 247.6792L113.3383 246.7798L112.7324 246.2221L112.0054 246.2746L111.6419 246.9959L111.1573 246.4002L110.6726 247.0893L110.3091 244.6657L109.8244 245.6731L109.7033 246.4644L109.5821 245.2293L109.4609 245.9739L109.3398 246.9608L108.6128 246.6776L108.3704 247.4602L107.7646 248.0967L107.5223 247.431L106.9164 243.7313L106.3106 243.3079L105.8259 242.3706L105.5836 241.6435L104.9777 240.3529L104.4931 241.3019L104.1296 242.0874L103.8872 243.2554L103.5237 244.0963L103.2814 245.0833L101.2216 256.7282L101.1004 242.7736L100.9792 240.2069L100.7369 239.4272L100.2522 238.8403L100.1311 239.9762L99.4041 258.8015L95.2844 234.1274L95.042 233.231L94.6785 232.6178L94.315 231.9199L93.7092 236.9978L88.8625 260.8221L88.6202 259.0292L88.499 258.2787L88.2567 256.2377L88.1355 254.7485L87.8932 253.2622L87.772 252.3074L87.6508 251.446L87.4085 250.0882L87.2873 251.1686L87.1662 253.1454L87.045 254.585L86.9238 256.5647L86.8027 257.9663L86.6815 259.5606L86.5603 260.8016L86.4392 262.5887L86.318 263.7567L86.1968 265.5846L86.0757 267.2578L85.9545 269.4302L85.8333 271.6202L85.7122 281.4694L83.5312 276.812L83.1677 276.0557L82.683 275.4396L81.956 286.5765L81.8348 318.3023L81.7137 320.0134L81.5925 321.4792L81.4713 323.7685L81.3502 325.4388L81.229 326.9104L81.1078 327.8974L80.8655 328.8493L80.3808 329.6173L80.1385 330.3619L79.6538 331.0247L78.9268 331.4277L78.1998 331.5182L77.4728 331.6408L76.7458 331.562L76.0188 331.6963L75.2918 331.7956L74.5648 331.7138L73.8378 331.7547L73.1108 331.8569L72.3838 331.9124L71.6568 331.8949L70.9298 331.8628L70.2028 331.8277L69.4758 331.8015L68.7488 331.7285L68.0218 331.7664L67.2948 331.7343L66.5678 331.7489L65.8408 331.7635L65.1137 331.8803L64.3867 331.8773L63.6597 331.8715L62.9327 331.8949L62.2057 331.9095L61.4787 331.8482L60.7517 331.8598L60.0247 331.927L59.2977 331.962L58.5707 331.9767L57.8437 331.9883L57.1167 331.9737L56.3897 331.9708L55.6627 331.9737L54.9357 331.9708L54.2087 331.965L53.4817 331.9737L52.7547 331.9474L52.0277 331.9066L51.3007 331.9124L50.5737 331.9358L49.8467 331.965L49.1197 331.9767L48.3927 331.9767L47.6657 331.9825L46.9387 331.9825L46.2117 331.9883L45.4847 331.9912" fill="none" stroke="#FFB300" stroke-width="2" stroke-linejoin="bevel"></path>
</g>
<defs >
<clipPath id="zr8-c0">
<path d="M44 39l247 0l0 294l-247 0Z" fill="#000"></path>
</clipPath>
<linearGradient gradientUnits="objectBoundingBox" x1="0" y1="0.75" x2="0" y2="1" id="zr8-g0">
<stop offset="0%" stop-color="#D81B60"></stop>
<stop offset="100%" stop-color="#D81B60AA"></stop>
</linearGradient>
<clipPath id="zr8-c1">
<path d="M0 0l0 0l0 30l0 0Z" transform="matrix(1,0,0,-1,22.5,365)" fill="#000"></path>
</clipPath>
<clipPath id="zr8-c2">
<path d="M0 0l300 0l0 30l-300 0Z" transform="matrix(1,0,0,-1,22.5,365)" fill="#000"></path>
</clipPath>
<clipPath id="zr8-c3">
<path d="M300 0l0 0l0 30l0 0Z" transform="matrix(1,0,0,-1,22.5,365)" fill="#000"></path>
</clipPath>
<clipPath id="zr8-c4">
<path d="M44 39l247 0l0 294l-247 0Z" fill="#000"></path>
</clipPath>
</defs>
</svg>